<svg width="217" height="123" viewBox="0 0 217 123" fill="none" xmlns="http://www.w3.org/2000/svg">
<path d="M193.728 40.059C209.704 40.206 217.371 48.373 216.728 64.559C216.787 71.945 214.954 78.778 211.228 85.059C205.959 89.804 199.792 91.304 192.728 89.559C186.606 86.172 182.773 81.005 181.228 74.059C180.126 65.88 180.793 57.88 183.228 50.059C185.966 45.819 189.466 42.485 193.728 40.059ZM194.728 47.059C191.617 49.245 189.45 52.245 188.228 56.059C187.561 62.059 187.561 68.059 188.228 74.059C188.699 75.805 189.366 77.472 190.228 79.059C197.022 86.09 203.022 85.423 208.228 77.059C209.734 70.126 210.067 63.126 209.228 56.059C206.847 49.118 202.014 46.118 194.728 47.059Z" fill="#9F5C39"/>
<path fill-rule="evenodd" clip-rule="evenodd" d="M130.728 60.059C132.728 60.059 134.728 60.059 136.728 60.059C136.728 62.392 136.728 64.726 136.728 67.059C138.728 67.059 140.728 67.059 142.728 67.059C143.728 72.059 141.728 74.059 136.728 73.059C137.736 78.226 135.903 79.893 131.228 78.059C130.734 76.425 130.568 74.758 130.728 73.059C125.297 74.465 122.963 72.465 123.728 67.059C126.061 67.059 128.395 67.059 130.728 67.059C130.728 64.726 130.728 62.392 130.728 60.059Z" fill="#9F5C39"/>
<path d="M58.728 0.0588662C60.427 -0.101134 62.094 0.0648662 63.728 0.558866C83.228 20.0589 102.728 39.5589 122.228 59.0589C122.951 61.6839 121.951 63.3509 119.228 64.0589C116.947 62.7829 114.947 61.1159 113.228 59.0589C112.895 79.3919 112.561 99.7259 112.228 120.059C111.728 120.559 111.228 121.059 110.728 121.559C77.156 122.388 43.656 122.221 10.228 121.059C9.89403 100.392 9.56103 79.7259 9.22803 59.0589C7.50803 61.1159 5.50803 62.7829 3.22803 64.0589C0.504035 63.3509 -0.495965 61.6839 0.228035 59.0589C19.875 39.5779 39.375 19.9109 58.728 0.0588662ZM51.728 80.0589C51.728 92.0589 51.728 104.059 51.728 116.059C57.728 116.059 63.728 116.059 69.728 116.059C69.728 104.059 69.728 92.0589 69.728 80.0589C63.728 80.0589 57.728 80.0589 51.728 80.0589ZM60.728 8.05887C46.43 22.8579 31.93 37.5239 17.228 52.0589C16.728 73.3899 16.561 94.7229 16.728 116.059C26.061 116.059 35.394 116.059 44.728 116.059C44.561 102.388 44.728 88.7219 45.228 75.0589C45.728 74.5589 46.228 74.0589 46.728 73.5589C56.395 72.8919 66.061 72.8919 75.728 73.5589C76.228 74.0589 76.728 74.5589 77.228 75.0589C77.728 88.7219 77.895 102.388 77.728 116.059C87.061 116.059 96.395 116.059 105.728 116.059C105.895 94.3899 105.728 72.7229 105.228 51.0589C90.809 36.1369 75.976 21.8039 60.728 8.05887Z" fill="#9F5C39"/>
<path d="M162.502 68.235C159.018 69.6197 156.584 70.9597 155.199 72.255C153.77 73.6843 153.055 75.4933 153.055 77.682C153.055 79.7367 153.993 81.4563 155.869 82.841C157.834 84.2703 160.068 84.985 162.569 84.985C165.383 84.985 167.616 84.3597 169.269 83.109C171.145 81.7243 172.083 79.759 172.083 77.213C172.083 75.1583 171.19 73.4387 169.403 72.054C168.108 71.0267 165.807 69.7537 162.502 68.235ZM162.569 62.071C167.884 59.4357 170.542 56.5993 170.542 53.562C170.542 51.7307 169.716 50.212 168.063 49.006C166.544 47.8893 164.713 47.331 162.569 47.331C160.246 47.331 158.326 47.9117 156.807 49.073C155.288 50.1897 154.529 51.686 154.529 53.562C154.529 55.4827 155.355 57.2023 157.008 58.721C157.589 59.2123 158.326 59.7483 159.219 60.329C160.157 60.865 161.274 61.4457 162.569 62.071ZM169.671 64.885C176.014 67.699 179.185 72.0317 179.185 77.883C179.185 82.6177 177.354 86.191 173.691 88.603C170.654 90.613 166.946 91.618 162.569 91.618C158.236 91.618 154.529 90.546 151.447 88.402C147.784 85.9453 145.953 82.439 145.953 77.883C145.953 72.121 148.99 67.8107 155.065 64.952C149.928 61.87 147.36 57.8723 147.36 52.959C147.36 48.805 149.191 45.589 152.854 43.311C155.713 41.5243 158.951 40.631 162.569 40.631C166.634 40.631 170.051 41.569 172.82 43.445C176.036 45.6783 177.644 48.8497 177.644 52.959C177.644 57.4257 174.986 61.401 169.671 64.885Z" fill="#9F5C39"/>
</svg>
